<svg xmlns="http://www.w3.org/2000/svg" xmlns:xlink="http://www.w3.org/1999/xlink" width="256" height="256" viewBox="0 0 256 256">
  <defs>
    <clipPath id="clip-path">
      <rect id="Rettangolo_1509" data-name="Rettangolo 1509" width="256" height="207.249" fill="none"/>
    </clipPath>
    <clipPath id="clip-Icona_cloud__svg">
      <rect width="256" height="256"/>
    </clipPath>
  </defs>
  <g id="Icona_cloud__svg" data-name="Icona_cloud_– svg" clip-path="url(#clip-Icona_cloud__svg)">
    <rect width="256" height="256" fill="#fff"/>
    <g id="Raggruppa_2073" data-name="Raggruppa 2073" transform="translate(0 24)">
      <g id="Raggruppa_2072" data-name="Raggruppa 2072" clip-path="url(#clip-path)">
        <path id="Tracciato_10145" data-name="Tracciato 10145" d="M243.169,79.609a56.387,56.387,0,0,0-33.424-18.722c-.329-23.986-15.3-45.712-38.343-55.523C140.844-7.652,105.09,3.836,88.748,30.941A41.039,41.039,0,0,0,73.214,27.9h-.13A40.232,40.232,0,0,0,45.29,38.929,36.682,36.682,0,0,0,33.7,64.551C13.3,73.065-.056,92.332,0,113.847c.074,29.3,24.905,53.107,55.525,53.52L63.7,155.508H56.339c-24.457,0-44.385-18.681-44.444-41.691C11.85,95.944,23.9,80.024,41.876,74.2l5.057-1.638L45.87,67.354c-.127-.623-.222-1.252-.286-1.883A24.87,24.87,0,0,1,53.5,47.541,28.375,28.375,0,0,1,73.121,39.8h.093a28.929,28.929,0,0,1,14.964,4.128l5.63,3.4,2.82-5.941c11.959-25.2,43.416-36.445,70.116-25.074,18.926,8.057,31.136,25.9,31.112,45.455a12.779,12.779,0,0,1-.188,1.682c-.109.738-.215,1.475-.268,2.221l-.437,5.955,5.958.413a44.965,44.965,0,0,1,31.243,15.347,39.98,39.98,0,0,1,9.819,29.358c-1.68,21.748-21.147,38.765-44.335,38.765h-36.2l-8.2,11.9h44.408c29.358,0,54.036-21.842,56.193-49.746a51.8,51.8,0,0,0-12.677-38.05" transform="translate(0 0)" fill="#009fe3"/>
        <path id="Tracciato_10146" data-name="Tracciato 10146" d="M182.965,116.839l-37.1,6.847a13.124,13.124,0,0,0-7.313,4.738l-49.1,71.246a4.73,4.73,0,0,0,1.211,6.559L137.827,238.7a4.73,4.73,0,0,0,6.559-1.211l49.1-71.242a13.121,13.121,0,0,0,1.817-8.522l-6.847-37.1a4.731,4.731,0,0,0-5.487-3.781m-16.342,41.377a9.432,9.432,0,1,1,7.564-10.987,9.432,9.432,0,0,1-7.564,10.987" transform="translate(-24.497 -32.274)" fill="#fabc0c"/>
      </g>
    </g>
  </g>
</svg>
